<?xml version="1.0" encoding="UTF-8"?>
<svg version="1.1" xmlns="http://www.w3.org/2000/svg" width="1024" height="1024">
<path d="M0 0 C12.78590421 9.93391054 21.49943873 22.79328138 29 37 C29.62003906 38.14984375 30.24007813 39.2996875 30.87890625 40.484375 C47.95439267 73.55075596 45.2261697 113.75670463 34.3984375 148.2109375 C31.09479806 158.26923719 27.02746386 167.73960964 22.03369141 177.06787109 C20.95956761 179.07557439 19.90625319 181.09327575 18.85546875 183.11328125 C18.15464421 184.45104434 17.45285442 185.78830229 16.75 187.125 C16.43297119 187.72868408 16.11594238 188.33236816 15.78930664 188.9543457 C13.731589 192.80669133 11.46904556 196.40568146 9 200 C10.61039226 204.09918029 13.57858366 206.76144104 16.6875 209.75 C20.62931193 213.61852459 24.46856856 217.49470449 28.046875 221.70703125 C29.64140356 223.57900778 31.25750642 225.42367821 32.890625 227.26171875 C63.39141508 261.72604457 87.44613553 302.63843677 84.6796875 350.15625 C82.75675464 375.1543772 71.85349482 397.02979644 56 416 C55.45601562 416.69738281 54.91203125 417.39476562 54.3515625 418.11328125 C49.99978308 423.58444902 44.49412197 427.73171707 39 432 C38.1440625 432.68320312 37.288125 433.36640625 36.40625 434.0703125 C16.95869534 449.00744033 -7.49477568 457.1506801 -32 456 C-32.25652344 456.71929688 -32.51304687 457.43859375 -32.77734375 458.1796875 C-38.01237524 470.25538315 -48.8774322 481.76846135 -59 490 C-60.17949219 491.04414062 -60.17949219 491.04414062 -61.3828125 492.109375 C-79.48688013 507.78155295 -101.80442722 516.98594951 -125.875 515.875 C-136.31235169 514.74276858 -147.21383964 510.80140649 -154.0625 502.5 C-155.22504656 499.39987585 -155.41122036 497.28976291 -155 494 C-153.73711341 491.22164951 -152.6477829 489.50897228 -150.25 487.625 C-146.89316367 486.69254547 -144.37190499 487.23096904 -141 488 C-139.31008021 488.9601817 -137.63790712 489.95355934 -136 491 C-135.01 491 -134.02 491 -133 491 C-133 491.66 -133 492.32 -133 493 C-115.12787283 495.87065255 -99.33607538 493.6704987 -84.265625 483.078125 C-81.7676148 481.12513521 -79.36873247 479.1073837 -77 477 C-76.39800781 476.46890625 -75.79601562 475.9378125 -75.17578125 475.390625 C-71.23564922 471.68010439 -67.89681248 467.49925813 -64.5625 463.25 C-63.88767578 462.3988562 -63.88767578 462.3988562 -63.19921875 461.53051758 C-60.55356351 458.16422209 -60.55356351 458.16422209 -60 454 C-60.845625 453.68546875 -61.69125 453.3709375 -62.5625 453.046875 C-79.63363882 446.6063999 -93.57364956 438.66919445 -101.9375 421.5 C-107.9016824 407.04199921 -107.16932229 391.90438136 -101.62890625 377.4140625 C-94.65787435 362.26836729 -82.97338578 350.62520966 -67.2265625 344.7265625 C-57.95707572 341.7017826 -47.39925866 341.29448819 -38.5 345.5625 C-36.63401474 346.65435354 -34.79678272 347.79766186 -33 349 C-32.26265625 349.48339844 -31.5253125 349.96679688 -30.765625 350.46484375 C-20.58682479 358.21730205 -15.96119552 370.81141299 -14 383 C-13.72736328 384.54107422 -13.72736328 384.54107422 -13.44921875 386.11328125 C-11.00830491 401.79880581 -15.48430084 418.41500895 -21 433 C-4.07816166 428.9262241 10.33167154 423.00188406 24 412 C24.70382812 411.45988281 25.40765625 410.91976563 26.1328125 410.36328125 C43.04771484 396.665527 52.05048673 374.3311017 54.55078125 353.23999023 C57.80736051 319.21280773 42.36316677 287.10762034 21.4375 261.1875 C17.74266273 256.79416876 13.92526146 252.51622492 10.0546875 248.27734375 C8.29434202 246.3262384 6.60815677 244.33986456 4.9375 242.3125 C1.65793142 238.45151206 -2.12009942 235.2409487 -6 232 C-6.6084375 231.48824219 -7.216875 230.97648438 -7.84375 230.44921875 C-9.22414924 229.29345995 -10.61125376 228.14571565 -12 227 C-12.23332031 227.54011719 -12.46664063 228.08023438 -12.70703125 228.63671875 C-21.46496506 244.64442255 -38.39206829 258.51620732 -53 269 C-53.79148437 269.598125 -54.58296875 270.19625 -55.3984375 270.8125 C-85.23344221 292.80690621 -123.33727613 304.10515022 -160.28540039 299.17749023 C-182.50414585 295.80143327 -203.03733706 287.41054236 -218 270 C-226.37986395 258.55390724 -233.50950896 244.53441359 -233 230 C-233.66 230 -234.32 230 -235 230 C-235.24621094 230.69738281 -235.49242187 231.39476562 -235.74609375 232.11328125 C-245.1239854 253.70288228 -267.06592967 271.24699673 -288.5234375 279.8203125 C-308.46584845 286.5872879 -330.75689153 287.28186262 -350.125 278.375 C-356.29217229 275.1180881 -361.12284321 270.94501289 -366 266 C-366.64839844 265.36191406 -367.29679687 264.72382812 -367.96484375 264.06640625 C-379.16862899 252.27423842 -383.39038495 234.92950628 -384 219 C-384.05994141 217.72962891 -384.05994141 217.72962891 -384.12109375 216.43359375 C-384.60936178 195.78272826 -380.92361292 174.42731751 -374 155 C-374.99257813 155.20496094 -375.98515625 155.40992188 -377.0078125 155.62109375 C-386.00289426 157.42568326 -394.81212228 158.63880579 -404 159 C-404.90492188 159.04125 -405.80984375 159.0825 -406.7421875 159.125 C-413.93497085 159.3042594 -421.11916458 159.11653214 -427.0625 154.75 C-429.27140395 151.61478149 -430 149.83306241 -430 146 C-428.33939054 142.1543781 -426.83112887 140.54378965 -423 139 C-420.93083036 138.62051841 -418.84671731 138.31920199 -416.7578125 138.0703125 C-415.52546875 137.91433594 -414.293125 137.75835937 -413.0234375 137.59765625 C-410.46390747 137.28733247 -407.90401932 136.97994548 -405.34375 136.67578125 C-396.58810913 135.56093257 -388.42051331 133.62353776 -380 131 C-378.64370645 130.6206851 -377.28704604 130.24267359 -375.9296875 129.8671875 C-374.92164063 129.53976562 -373.91359375 129.21234375 -372.875 128.875 C-371.84117187 128.56304687 -370.80734375 128.25109375 -369.7421875 127.9296875 C-365.46862146 124.92236325 -364.60539933 120.83372965 -363 116 C-362.33509903 114.16898017 -361.66575831 112.33956701 -360.9921875 110.51171875 C-360.65074707 109.56901123 -360.30930664 108.62630371 -359.95751953 107.6550293 C-348.80253856 77.07568927 -333.32927798 48.7070462 -312 24 C-311.23429687 23.08863281 -310.46859375 22.17726563 -309.6796875 21.23828125 C-301.23163308 11.49992913 -291.06591127 1.63830901 -278 -1 C-273.57961031 -1.07129661 -271.805642 -0.58592145 -268.25 2 C-263.39492914 8.47342782 -262.41689646 14.61185547 -263.3671875 22.578125 C-269.95441622 58.19795438 -293.73631257 94.62564865 -321.84765625 117.171875 C-322.4715625 117.67412598 -323.09546875 118.17637695 -323.73828125 118.69384766 C-324.88960468 119.59709417 -326.06103155 120.47578127 -327.2578125 121.31787109 C-336.44193681 128.41343701 -339.58711088 144.04337097 -343.0625 154.5625 C-343.27655487 155.20731323 -343.49060974 155.85212646 -343.71115112 156.51647949 C-346.46773602 164.84998877 -349.02094192 173.20820919 -351.0625 181.75 C-351.25400635 182.55123291 -351.4455127 183.35246582 -351.64282227 184.17797852 C-356.22501174 204.60645607 -356.14872906 228.93364467 -344.66015625 247.12109375 C-338.96549095 254.45632745 -329.9531222 258.32290218 -321 260 C-305.81592954 261.64260393 -289.32958662 257.19927863 -277.32373047 247.66943359 C-273.34974396 244.31086226 -269.65232412 240.70186395 -266 237 C-265.20980469 236.22011719 -264.41960937 235.44023438 -263.60546875 234.63671875 C-246.21315107 216.49230085 -236.69382826 193.36127008 -228.61987305 169.9921875 C-219.27775232 143.29935711 -219.27775232 143.29935711 -209.71875 137.65234375 C-203.72653386 135.72175299 -203.72653386 135.72175299 -200.0625 137.125 C-196.73750356 140.14772403 -195.58119475 142.64103939 -195 147 C-194.81510367 152.75649066 -195.35430263 157.92646034 -196.49609375 163.55859375 C-196.64909439 164.34718277 -196.80209503 165.13577179 -196.95973206 165.94825745 C-197.44530272 168.44610681 -197.9406935 170.94186329 -198.4375 173.4375 C-198.92937875 175.92979856 -199.41900407 178.42249182 -199.90455627 180.91603088 C-200.20553799 182.45956751 -200.51022761 184.00238793 -200.81944275 185.54429626 C-202.57537003 194.49840811 -203.18145459 203.25852846 -203.1875 212.375 C-203.19974609 213.33921875 -203.21199219 214.3034375 -203.22460938 215.296875 C-203.24487255 225.37442622 -201.95861211 234.33558493 -197.25 243.3125 C-196.92773438 243.97572266 -196.60546875 244.63894531 -196.2734375 245.32226562 C-193.83730323 250.10483154 -190.84631107 253.28006772 -187 257 C-187 257.66 -187 258.32 -187 259 C-186.01 259.3403125 -186.01 259.3403125 -185 259.6875 C-182.51486019 260.77474867 -180.60618731 261.88295087 -178.375 263.375 C-160.4736831 274.78204216 -137.05058259 274.5210698 -116.9765625 270.18359375 C-90.58142112 263.57097447 -70.40252912 249.51808335 -51 231 C-50.19820312 230.23945313 -49.39640625 229.47890625 -48.5703125 228.6953125 C-42.07484836 222.37965359 -36.03207798 215.54811697 -31 208 C-31.34299476 204.72368117 -32.74439529 202.7142272 -34.73828125 200.15625 C-35.30530762 199.4149585 -35.87233398 198.67366699 -36.45654297 197.90991211 C-37.06900879 197.11464111 -37.68147461 196.31937012 -38.3125 195.5 C-51.49608963 177.95063607 -71 151.19080182 -71 128 C-71.66 127.67 -72.32 127.34 -73 127 C-73.46086925 124.35527319 -73.80074468 121.79089027 -74.0625 119.125 C-74.14483887 118.34777588 -74.22717773 117.57055176 -74.31201172 116.76977539 C-74.47506576 115.21462732 -74.63399037 113.65904018 -74.78857422 112.10302734 C-74.96013234 110.39655891 -75.15098395 108.6920379 -75.34765625 106.98828125 C-79.03089382 73.11287096 -70.92663701 39.73404481 -49.46875 12.9765625 C-35.52004872 -3.84133366 -19.91224196 -12.67596355 0 0 Z M-28 24 C-44.29769965 41.10831822 -46.63747892 67.69070362 -46.18359375 90.1796875 C-45.50398166 111.04082375 -41.25525941 130.24831661 -32 149 C-31.65420898 149.70398926 -31.30841797 150.40797852 -30.95214844 151.13330078 C-26.04696802 161.00326551 -20.53312066 170.11928043 -14 179 C-9.81652217 175.41416186 -7.61815788 171.06599065 -5.125 166.25 C-4.68518799 165.40163574 -4.24537598 164.55327148 -3.79223633 163.67919922 C12.63027955 131.40202344 17.37583337 93.67395032 6.64135742 58.79077148 C2.38533305 45.76390969 -3.35665976 28.78780181 -16.140625 21.8359375 C-20.95697001 20.31014881 -24.03786015 21.07146185 -28 24 Z M-296 41 C-298.34287418 43.67247634 -298.34287418 43.67247634 -299 47 C-299.66 47 -300.32 47 -301 47 C-302.65329575 49.11117877 -304.15099433 51.20434265 -305.625 53.4375 C-306.0694043 54.11055176 -306.51380859 54.78360352 -306.97167969 55.47705078 C-315.08169715 68.0832805 -320.3170774 81.82706378 -325 96 C-311.77213077 90.16248379 -304.17406976 70.80414276 -299 58 C-295.45112568 49.65386406 -295.45112568 49.65386406 -296 41 Z M-74 373 C-80.24139975 382.6183255 -82.33151999 392.43673839 -80.57421875 403.73828125 C-78.5088324 412.69673615 -74.19222288 420.06635928 -66.625 425.4375 C-59.9926485 429.4191668 -53.74066878 431.49408524 -46 431 C-38.80584653 417.1959898 -36.54824717 400.22248972 -40.125 385 C-42.25974367 378.41536811 -45.69536948 373.1974384 -50.6875 368.4375 C-59.23324711 364.72896824 -67.55619577 366.24338974 -74 373 Z " fill="#DC3637" transform="translate(652,277)"/>
<path d="M0 0 C4.6951143 3.67812203 8.09879503 8.79101087 9.1640625 14.6953125 C10.21627584 25.18294711 7.88363198 34.49412491 1.6015625 43.0078125 C-6.28093475 52.12103422 -16.54816879 56.99861001 -28.3359375 58.5703125 C-35.12420631 59.02602845 -40.76793 57.51521869 -46.2109375 53.3828125 C-50.95496107 48.52583598 -52.81141821 43.43695621 -52.85546875 36.71484375 C-52.0575525 24.35466941 -48.5588225 15.64340107 -39.8359375 6.6953125 C-28.63393887 -2.90124671 -13.6918845 -7.80482016 0 0 Z " fill="#DC3738" transform="translate(662.8359375,176.3046875)"/>
<path d="M0 0 C12.76605592 9.91848956 21.5583106 22.77999889 29 37 C29.34933594 37.66596191 29.69867187 38.33192383 30.05859375 39.01806641 C31.10468043 41.04270394 32.12038167 43.07950908 33.125 45.125 C33.44484863 45.75253174 33.76469727 46.38006348 34.09423828 47.02661133 C36.18874852 51.44094487 36.18874852 51.44094487 35.1796875 54.4296875 C34.79039062 54.94789063 34.40109375 55.46609375 34 56 C33.72027344 55.29617188 33.44054687 54.59234375 33.15234375 53.8671875 C23.96621466 31.2415448 12.30651224 9.70075116 -10 -2 C-13.16245541 -3.0541518 -15.86948218 -3.31275672 -19.1875 -3.5625 C-20.81751953 -3.68818359 -20.81751953 -3.68818359 -22.48046875 -3.81640625 C-23.31191406 -3.87699219 -24.14335938 -3.93757813 -25 -4 C-25 -4.66 -25 -5.32 -25 -6 C-15.83118967 -8.64012619 -7.73570636 -4.92448475 0 0 Z " fill="#DF2D24" transform="translate(652,277)"/>
<path d="M0 0 C0.66 0 1.32 0 2 0 C0.46649159 5.10843884 -2.7021731 8.42680184 -6.1875 12.3125 C-6.77684326 12.97894531 -7.36618652 13.64539063 -7.97338867 14.33203125 C-9.13325179 15.64350105 -10.29536749 16.95298286 -11.45996094 18.26025391 C-13.27695754 20.31287245 -15.04349857 22.40599599 -16.8125 24.5 C-28.63399712 37.90344929 -45.65571366 49.90719649 -62 57 C-62.66 56.67 -63.32 56.34 -64 56 C-62.44775185 52.89550369 -59.79593301 52.37451329 -56.6875 50.9375 C-49.43066258 47.43822133 -43.25375101 43.09443947 -37 38 C-36.22124512 37.37351562 -36.22124512 37.37351562 -35.42675781 36.734375 C-22.23250366 26.0827218 -9.45243068 14.17864603 0 0 Z " fill="#DF2E25" transform="translate(621,485)"/>
<path d="M0 0 C0 0.66 0 1.32 0 2 C-0.6290625 2.21914063 -1.258125 2.43828125 -1.90625 2.6640625 C-8.10326181 4.95994338 -13.00791737 7.67491797 -18 12 C-18.60714844 12.52464844 -19.21429687 13.04929687 -19.83984375 13.58984375 C-24.67725066 18.08852632 -27.95121254 23.16753703 -31 29 C-31.39316406 29.74765625 -31.78632812 30.4953125 -32.19140625 31.265625 C-35.7983026 39.0916584 -36.25240035 47.52064609 -37 56 C-37.66 56 -38.32 56 -39 56 C-39.8757594 39.55518457 -35.44316121 27.23585084 -24.6875 14.8125 C-18.40833179 8.0893502 -9.9199112 -0.87528628 0 0 Z " fill="#E02C22" transform="translate(586,623)"/>
<path d="M0 0 C4.16279849 1.51719307 6.14073324 4.48490899 8.5625 8 C8.99232178 8.61593018 9.42214355 9.23186035 9.86499023 9.86645508 C17.4501963 20.87970919 24.35449645 32.20838726 30.1875 44.25 C30.57429932 45.03592529 30.96109863 45.82185059 31.35961914 46.6315918 C33.37322282 50.92960214 34.47158231 54.14502146 34 59 C32.3814317 56.57214755 31.30315533 54.54747653 30.1875 51.89453125 C25.3297053 40.57879327 19.89465336 30.1986794 13 20 C12.3797998 19.07670898 12.3797998 19.07670898 11.74707031 18.13476562 C6.96618195 11.03553904 6.96618195 11.03553904 1.7421875 4.26171875 C0 2 0 2 0 0 Z " fill="#DD2D23" transform="translate(694,518)"/>
<path d="M0 0 C0.33 0.99 0.66 1.98 1 3 C-0.45018322 5.6403032 -2.13867175 8.04800738 -3.84765625 10.52734375 C-5.24578454 12.86117716 -5.24578454 12.86117716 -4.5390625 14.95703125 C-2.38289754 17.8191487 0.11162222 20.27387416 2.6875 22.75 C6.65556578 26.64409385 10.53502601 30.54093473 14.12890625 34.7890625 C15.69645164 36.64131864 17.29092579 38.45962668 18.90234375 40.2734375 C19.93527699 41.45279127 20.96782782 42.63248008 22 43.8125 C22.5060376 44.37638428 23.0120752 44.94026855 23.53344727 45.52124023 C24.9375 47.14453125 24.9375 47.14453125 27 50 C26.67 50.99 26.34 51.98 26 53 C22.17011025 48.70256526 18.34370351 44.40289558 14.5625 40.0625 C7.91359016 32.46589486 1.25555139 25.12103392 -6.2265625 18.32421875 C-8 16 -8 16 -7.99609375 13.5703125 C-6.80287692 10.49134515 -5.26134502 7.93984795 -3.4375 5.1875 C-2.79683594 4.21167969 -2.15617188 3.23585938 -1.49609375 2.23046875 C-0.75552734 1.12638672 -0.75552734 1.12638672 0 0 Z " fill="#DE2920" transform="translate(666,464)"/>
<path d="M0 0 C1.30953959 3.31529009 0.68714754 5.58612896 -0.28417969 8.92626953 C-4.78386027 24.71977649 -3.84720722 41.71176331 -4 58 C-4.33 58 -4.66 58 -5 58 C-5.06058594 57.36191406 -5.12117187 56.72382813 -5.18359375 56.06640625 C-5.30927734 54.82697266 -5.30927734 54.82697266 -5.4375 53.5625 C-5.55931641 52.32693359 -5.55931641 52.32693359 -5.68359375 51.06640625 C-5.78930815 49.01337975 -5.78930815 49.01337975 -7 48 C-7.84814126 32.85180267 -6.63946784 16.49833699 -2 2 C-1.34 1.34 -0.68 0.68 0 0 Z " fill="#DE3128" transform="translate(583,328)"/>
<path d="M0 0 C2.62732078 2.2655817 3.47729452 3.89259226 4.1328125 7.28125 C4.3817627 8.53615234 4.3817627 8.53615234 4.63574219 9.81640625 C4.79719727 10.70199219 4.95865234 11.58757812 5.125 12.5 C5.29676758 13.40621094 5.46853516 14.31242187 5.64550781 15.24609375 C6.79740408 21.48199043 7.77194344 27.65407822 8 34 C8.03996094 34.969375 8.07992187 35.93875 8.12109375 36.9375 C8.270895 43.84598099 7.486406 50.25808707 6 57 C5.67 57 5.34 57 5 57 C4.97812622 55.74062622 4.97812622 55.74062622 4.95581055 54.45581055 C4.64504401 38.40246793 4.0302118 22.80980069 1 7 C0.63974331 4.66945056 0.31647623 2.33705527 0 0 Z " fill="#DE2D24" transform="translate(687,334)"/>
<path d="M0 0 C0.99 0.33 1.98 0.66 3 1 C-13.30728773 15.95117232 -29.40488295 19.42343367 -51 19 C-51.33 18.34 -51.66 17.68 -52 17 C-50.43765625 16.96132813 -50.43765625 16.96132813 -48.84375 16.921875 C-32.03607868 16.33261782 -15.46029154 13.51377368 -2.375 2 C-1.59125 1.34 -0.8075 0.68 0 0 Z " fill="#E02F26" transform="translate(379,521)"/>
<path d="M0 0 C0.33 0 0.66 0 1 0 C1.02806159 1.43737706 1.04684998 2.87493423 1.0625 4.3125 C1.07410156 5.11300781 1.08570313 5.91351563 1.09765625 6.73828125 C1.01724471 9.42402664 0.79103773 11.98991059 0.5 14.65625 C-0.30840556 23.14701892 -0.10573902 31.6677821 -0.0625 40.1875 C-0.05747379 41.91992058 -0.05291287 43.65234257 -0.04882812 45.38476562 C-0.03791402 49.58987928 -0.02071152 53.79492366 0 58 C-0.33 58 -0.66 58 -1 58 C-2.86969183 48.85274409 -3.33542558 40.00904069 -3.3125 30.6875 C-3.32861328 29.38876953 -3.34472656 28.09003906 -3.36132812 26.75195312 C-3.365959 17.43925987 -2.13367002 9.02632026 0 0 Z " fill="#E02D25" transform="translate(607,332)"/>
<path d="M0 0 C0.495 0.99 0.495 0.99 1 2 C-3.125 7.5 -3.125 7.5 -4.38330078 9.1652832 C-6.14736619 11.50378312 -7.89304096 13.84361292 -9.546875 16.26171875 C-15.95083902 25.54746658 -26.08789578 32.7927966 -36 38 C-36.99 38 -37.98 38 -39 38 C-39 37.34 -39 36.68 -39 36 C-38.46632813 35.731875 -37.93265625 35.46375 -37.3828125 35.1875 C-24.63333226 28.48189101 -15.00348174 18.94011227 -6.46289062 7.53051758 C-4.45049324 4.84425501 -2.47214281 2.27950831 0 0 Z " fill="#E02E25" transform="translate(595,731)"/>
<path d="M0 0 C1.22363208 2.88327098 1.0094182 3.97503849 -0.1171875 6.9609375 C-7.94167152 22.15782424 -17.46550706 35.57910985 -28 49 C-28.99 48.67 -29.98 48.34 -31 48 C-30.43152344 47.32195312 -29.86304688 46.64390625 -29.27734375 45.9453125 C-17.60016256 31.8703128 -7.74656498 16.59395761 0 0 Z " fill="#E12C22" transform="translate(378,325)"/>
<path d="M0 0 C2.19219451 2.19219451 2.70972967 3.61644364 3.75 6.5 C7.99575365 17.42216182 13.95014342 26.58694693 24 32.75 C24.60328125 33.13542969 25.2065625 33.52085937 25.828125 33.91796875 C29.11537608 35.98321997 32.34152955 37.69736279 36 39 C35.505 39.99 35.505 39.99 35 41 C23.14936261 38.68139703 12.87654383 28.9319466 6.109375 19.3125 C2.11200692 12.79252099 -0.30526746 7.78432034 0 0 Z " fill="#DE2C23" transform="translate(273,516)"/>
<path d="M0 0 C7.8781141 0.3352389 13.75715154 4.36018055 19.125 10 C25.15751922 17.51952676 30.19023286 27.54230247 30.0625 37.25 C30.05347656 38.14203125 30.04445313 39.0340625 30.03515625 39.953125 C30.02355469 40.62859375 30.01195312 41.3040625 30 42 C28.24636275 38.85091524 27.44328525 35.88963327 26.6875 32.375 C23.82934725 20.59768717 18.53449425 11.89164684 8.2265625 5.32421875 C5.53836145 3.72544655 2.83914199 2.31037323 0 1 C0 0.67 0 0.34 0 0 Z " fill="#E02B22" transform="translate(607,622)"/>
<path d="M0 0 C3.05720714 1.52860357 3.19659848 3.89653835 4.3125 7.0625 C7.35185142 15.20011832 10.81497297 20.99168803 17 27 C17 27.66 17 28.32 17 29 C17.71542969 29.25523437 18.43085938 29.51046875 19.16796875 29.7734375 C22.20246618 31.0876888 24.63188911 32.69496016 27.3125 34.625 C28.19550781 35.25664063 29.07851563 35.88828125 29.98828125 36.5390625 C30.98408203 37.26222656 30.98408203 37.26222656 32 38 C31.01 38.495 31.01 38.495 30 39 C17.18003349 33.96358459 8.11609108 23.10347447 2.2265625 10.9921875 C0.67348505 7.2034699 0.15663562 4.07252607 0 0 Z " fill="#DF2C23" transform="translate(448,507)"/>
<path d="M0 0 C3.82772935 3.65592821 7.06802818 7.47802514 10.1875 11.75 C10.65510742 12.3903418 11.12271484 13.03068359 11.60449219 13.69042969 C15.22192731 18.73637513 18.55855447 23.92539434 21.75 29.25 C22.19239014 29.97670898 22.63478027 30.70341797 23.09057617 31.45214844 C24.14443239 33.25485898 25.08301343 35.12396326 26 37 C25.67 37.99 25.34 38.98 25 40 C22.56488702 36.9813935 20.69052863 33.77781196 18.78857422 30.41455078 C14.31179527 22.51110152 9.40961253 15.20684303 3.76000977 8.09082031 C0 3.29648367 0 3.29648367 0 0 Z " fill="#DF2D24" transform="translate(671,532)"/>
<path d="M0 0 C0.66 0 1.32 0 2 0 C0.53077147 4.97991144 -1.58192786 9.25919144 -4.125 13.75 C-4.52243408 14.45302246 -4.91986816 15.15604492 -5.3293457 15.88037109 C-10.15465823 24.23146808 -16.01578243 31.36499331 -23 38 C-23.66 37.67 -24.32 37.34 -25 37 C-24.29875 36.21238281 -23.5975 35.42476563 -22.875 34.61328125 C-13.5425854 23.9651167 -6.62445374 12.52122127 0 0 Z " fill="#E02B21" transform="translate(351,339)"/>
<path d="M0 0 C7.37332788 1.61853539 11.12114774 6.0918328 15.08203125 12.22265625 C23.20236031 25.79528661 23.20236031 25.79528661 25 33 C24.67 33.99 24.34 34.98 24 36 C21.81909829 32.5227109 19.97472716 28.9681538 18.19702148 25.27685547 C13.76756094 16.10942539 9.40097922 8.54796401 1.3203125 2.12890625 C0.88460937 1.75636719 0.44890625 1.38382812 0 1 C0 0.67 0 0.34 0 0 Z " fill="#DF2D24" transform="translate(634,297)"/>
<path d="M0 0 C5.82618732 11.26015705 3.03338097 28.10066353 0.6953125 40.15234375 C-0.12993067 42.34526521 -1.24884281 43.47371819 -3 45 C-2.08189379 37.52399232 -2.08189379 37.52399232 -1.5 33.80078125 C-1.01238027 30.09410936 -0.79581944 26.48941855 -0.68359375 22.75390625 C-0.66281265 22.09792953 -0.64203156 21.44195282 -0.62062073 20.76609802 C-0.55594062 18.69832454 -0.49662534 16.63043899 -0.4375 14.5625 C-0.39423693 13.14907758 -0.35062035 11.73566593 -0.30664062 10.32226562 C-0.20034484 6.88162529 -0.09885528 3.44086308 0 0 Z " fill="#DF271C" transform="translate(734,602)"/>
<path d="M0 0 C0 0.66 0 1.32 0 2 C-2.51974253 2.65035371 -5.04065935 3.29537493 -7.5625 3.9375 C-8.26697266 4.11990234 -8.97144531 4.30230469 -9.69726562 4.49023438 C-16.46389251 6.20527806 -22.93265886 7.13471486 -29.9375 7.0625 C-31.08089844 7.05347656 -32.22429688 7.04445313 -33.40234375 7.03515625 C-34.25957031 7.02355469 -35.11679687 7.01195312 -36 7 C-36.33 7.99 -36.66 8.98 -37 10 C-37.66 10 -38.32 10 -39 10 C-38.34 8.35 -37.68 6.7 -37 5 C-36.28457031 4.91959473 -35.56914063 4.83918945 -34.83203125 4.75634766 C-31.55403344 4.38476349 -28.27703865 4.00494651 -25 3.625 C-23.87464844 3.49867188 -22.74929688 3.37234375 -21.58984375 3.2421875 C-16.80054674 2.6820358 -12.10678198 2.12639802 -7.4375 0.8984375 C-4 0 -4 0 0 0 Z " fill="#DF2F27" transform="translate(656,726)"/>
<path d="M0 0 C4.5032086 1.41529413 6.80350478 3.57518369 10 7 C11.87844687 8.81962285 13.75944167 10.63647802 15.64453125 12.44921875 C17 14 17 14 17 16 C17.58523438 16.25007812 18.17046875 16.50015625 18.7734375 16.7578125 C21.29532706 18.16476141 22.75086062 19.68712804 24.625 21.875 C25.21539063 22.55304687 25.80578125 23.23109375 26.4140625 23.9296875 C27.91318087 25.88666469 28.98569068 27.76048537 30 30 C24.28576523 27.44922562 20.45205289 22.78714202 16.5625 18 C13.8791269 14.85849003 11.00107831 12.28577689 7.87109375 9.60546875 C5.7988232 7.82738274 3.8155483 6.04249184 2 4 C2 3.34 2 2.68 2 2 C1.34 2 0.68 2 0 2 C0 1.34 0 0.68 0 0 Z " fill="#DD2C24" transform="translate(640,501)"/>
<path d="M0 0 C0.66 0.33 1.32 0.66 2 1 C1.46632813 1.64324219 0.93265625 2.28648437 0.3828125 2.94921875 C-7.86992838 12.95816574 -16.03189348 23.03797876 -23 34 C-23.7734375 32.41015625 -23.7734375 32.41015625 -24 30 C-22.63151932 27.63379441 -21.2697876 25.59689092 -19.625 23.4375 C-18.94304565 22.51529663 -18.94304565 22.51529663 -18.24731445 21.57446289 C-12.59286389 13.99367392 -6.76739125 6.62566578 0 0 Z " fill="#E02D22" transform="translate(345,296)"/>
<path d="M0 0 C0.495 1.485 0.495 1.485 1 3 C-3.61108705 11.87806313 -12.44230344 17.39640029 -21.5 21 C-26.68340538 22.55219943 -31.73018488 21.8175601 -37 21 C-37 20.67 -37 20.34 -37 20 C-36.34515625 19.98582031 -35.6903125 19.97164062 -35.015625 19.95703125 C-23.42039902 19.35106605 -13.38740649 15.09641484 -5 7 C-3.12104847 4.73731894 -1.57726744 2.49310014 0 0 Z " fill="#E12F27" transform="translate(666,212)"/>
<path d="M0 0 C-1 2 -1 2 -3.83203125 3.0703125 C-17.71153655 6.96846298 -31.70100571 6.39453874 -46 6 C-46 5.67 -46 5.34 -46 5 C-45.32122803 4.95512451 -44.64245605 4.91024902 -43.94311523 4.86401367 C-26.33266204 3.6932256 -26.33266204 3.6932256 -8.98828125 0.5859375 C-5.91775255 -0.01612695 -3.12066822 -0.10293059 0 0 Z " fill="#E02C23" transform="translate(546,546)"/>
<path d="M0 0 C0.33 0 0.66 0 1 0 C0.67 12.87 0.34 25.74 0 39 C-5.95565284 30.06652074 -2.91349297 16.11367222 -2 6 C-1.34 6 -0.68 6 0 6 C0 4.02 0 2.04 0 0 Z " fill="#DD2D25" transform="translate(271,465)"/>
<path d="M0 0 C0.33 0.66 0.66 1.32 1 2 C0.10580725 4.25518444 -0.84074702 6.34480236 -1.9375 8.5 C-2.255979 9.1293042 -2.57445801 9.7586084 -2.90258789 10.40698242 C-5.93407262 16.19784829 -9.66686078 21.1098599 -14 26 C-14.75410156 26.86238281 -15.50820313 27.72476563 -16.28515625 28.61328125 C-18.17503159 30.75647321 -20.07893469 32.88478447 -22 35 C-22.66 34.67 -23.32 34.34 -24 34 C-23.29875 33.21238281 -22.5975 32.42476562 -21.875 31.61328125 C-15.32851172 24.1416702 -10.00380996 16.60383612 -5 8 C-4.00685089 6.39158291 -3.00793998 4.7866897 -2 3.1875 C-1.34 2.135625 -0.68 1.08375 0 0 Z " fill="#E02C21" transform="translate(702,655)"/>
<path d="M0 0 C2.9835053 2.9835053 2.29277737 5.73167035 2.32226562 9.81445312 C2.31904297 10.84505859 2.31582031 11.87566406 2.3125 12.9375 C2.32861328 13.93330078 2.34472656 14.92910156 2.36132812 15.95507812 C2.36584059 22.90878808 1.62664964 29.50089216 -1 36 C-1.99 36.495 -1.99 36.495 -3 37 C-2.85566132 35.64567321 -2.70943339 34.29154775 -2.5625 32.9375 C-2.44068359 31.80634766 -2.44068359 31.80634766 -2.31640625 30.65234375 C-2.08602492 28.72112249 -1.80727796 26.79548727 -1.5 24.875 C-0.86342326 19.94153026 -0.64461524 15.02987046 -0.4375 10.0625 C-0.39431641 9.09248047 -0.35113281 8.12246094 -0.30664062 7.12304688 C-0.20137907 4.74881399 -0.09924293 2.37449079 0 0 Z " fill="#DF261C" transform="translate(613,664)"/>
<path d="M0 0 C0.33 0 0.66 0 1 0 C1.21929674 5.04382495 0.57865145 9.42941776 -0.48828125 14.35546875 C-1.29791443 18.53960359 -1.65684629 22.75573039 -2 27 C-2.66 27 -3.32 27 -4 27 C-4 32.28 -4 37.56 -4 43 C-4.33 43 -4.66 43 -5 43 C-5.27669124 28.58131194 -4.57419036 15.05848209 -1 1 C-0.67 0.67 -0.34 0.34 0 0 Z " fill="#E02B1E" transform="translate(300,451)"/>
<path d="M0 0 C0.33 0.99 0.66 1.98 1 3 C-0.37401621 5.32735344 -1.76595959 7.40655289 -3.375 9.5625 C-4.05695435 10.49425049 -4.05695435 10.49425049 -4.75268555 11.44482422 C-10.02628344 18.54520009 -15.64653467 25.95559383 -23 31 C-23.99 30.67 -24.98 30.34 -26 30 C-25.38253906 29.47792969 -24.76507813 28.95585938 -24.12890625 28.41796875 C-14.52948486 20.07509263 -7.09110465 10.51125159 0 0 Z " fill="#E02A1F" transform="translate(415,508)"/>
<path d="M0 0 C1 3 1 3 -0.40625 6.3359375 C-1.09339664 7.68782016 -1.79206371 9.03388725 -2.5 10.375 C-2.86367676 11.08019775 -3.22735352 11.78539551 -3.60205078 12.51196289 C-4.72470968 14.68001562 -5.86191603 16.84001352 -7 19 C-7.67491339 20.30316062 -8.34941528 21.60653448 -9.0234375 22.91015625 C-13.72184685 31.86092342 -13.72184685 31.86092342 -16 33 C-15.39638486 29.11373472 -14.21629675 26.12683993 -12.3828125 22.65625 C-11.85816406 21.65722656 -11.33351563 20.65820312 -10.79296875 19.62890625 C-10.24253906 18.59636719 -9.69210937 17.56382812 -9.125 16.5 C-8.31095703 14.95119141 -8.31095703 14.95119141 -7.48046875 13.37109375 C-5.09059446 8.84260335 -2.66504116 4.37370425 0 0 Z " fill="#E12F25" transform="translate(419,463)"/>
<path d="M0 0 C2 1 2 1 2.62255859 2.82250977 C2.79609863 3.60424561 2.96963867 4.38598145 3.1484375 5.19140625 C3.34953125 6.05443359 3.550625 6.91746094 3.7578125 7.80664062 C4.16306658 9.61617703 4.56676275 11.42606319 4.96875 13.23632812 C5.98565369 17.5903493 7.09632539 21.48513298 9.1640625 25.46484375 C11 29 11 29 11 32 C10.34 32 9.68 32 9 32 C3.8089671 21.73553041 -0.31404814 11.7070167 0 0 Z " fill="#DE2C24" transform="translate(419,506)"/>
<path d="M0 0 C3.61778978 1.20592993 4.00276074 2.4820974 5.65234375 5.76342773 C5.97332031 6.41899658 6.29429687 7.07456543 6.625 7.75 C10.4770151 15.32312759 14.99911434 22.13535834 20 29 C19.67 29.66 19.34 30.32 19 31 C12.59702599 24.11680294 0 9.79690807 0 0 Z " fill="#DD2C22" transform="translate(619,427)"/>
<path d="M0 0 C0.66 0.33 1.32 0.66 2 1 C1.26265625 1.77988281 0.5253125 2.55976563 -0.234375 3.36328125 C-3.68005336 7.50028224 -5.3700636 12.19482275 -7.25 17.1875 C-7.600625 18.08919922 -7.95125 18.99089844 -8.3125 19.91992188 C-9.6068028 23.26270776 -10.86633753 26.59901259 -12 30 C-12.66 30 -13.32 30 -14 30 C-12.96353643 23.66605594 -10.93924521 18.03103419 -8.5 12.125 C-8.03678345 11.00073608 -8.03678345 11.00073608 -7.56420898 9.85375977 C-6.21726745 6.65174038 -4.93959548 3.90939322 -3 1 C-2.01 0.67 -1.02 0.34 0 0 Z " fill="#E02E24" transform="translate(322,398)"/>
<path d="M0 0 C3.39826747 1.13275582 3.79488027 1.78019095 5.75 4.625 C10.4797623 11.1371604 15.43602162 16.03179191 22.49609375 19.95703125 C22.99238281 20.30121094 23.48867188 20.64539063 24 21 C24 21.66 24 22.32 24 23 C14.97295491 21.26249353 6.54860735 11.91348244 1.5 4.625 C0 2 0 2 0 0 Z " fill="#DF2C23" transform="translate(430,539)"/>
<path d="M0 0 C0.33 0 0.66 0 1 0 C2.72058396 12.34331975 0.84911537 22.95545648 -2 35 C-2.66 35 -3.32 35 -4 35 C-3.54672489 28.16508852 -2.79135364 21.54535256 -1.4765625 14.82421875 C-0.64827865 9.91561855 -0.32916181 4.96341364 0 0 Z " fill="#DF2C22" transform="translate(454,424)"/>
<path d="M0 0 C15.84 0.495 15.84 0.495 32 1 C32 1.33 32 1.66 32 2 C22.03770227 3.74886731 11.99701175 5.29098186 2 3 C1.34 2.01 0.68 1.02 0 0 Z " fill="#DE2C23" transform="translate(229,432)"/>
<path d="M0 0 C0.33 0.66 0.66 1.32 1 2 C-0.28560239 4.3655084 -1.62120828 6.60682505 -3.0625 8.875 C-7.11777665 15.42009432 -10.69476752 22.03956925 -14 29 C-14.8827867 26.55713994 -15.12991787 25.36372812 -14.24316406 22.88110352 C-13.83807617 22.13787842 -13.43298828 21.39465332 -13.015625 20.62890625 C-12.57476562 19.80712891 -12.13390625 18.98535156 -11.6796875 18.13867188 C-11.20789063 17.28853516 -10.73609375 16.43839844 -10.25 15.5625 C-9.79367187 14.71623047 -9.33734375 13.86996094 -8.8671875 12.99804688 C-7.5970799 10.65422114 -6.30508902 8.32448958 -5 6 C-4.43796875 4.99839844 -3.8759375 3.99679687 -3.296875 2.96484375 C-2 1 -2 1 0 0 Z " fill="#DF3027" transform="translate(318,333)"/>
<path d="M0 0 C0.66 0 1.32 0 2 0 C0.35853374 4.5537451 -1.96128416 8.57715197 -4.375 12.75 C-7.59609664 18.38547165 -10.5301348 23.98641518 -13 30 C-13.66 30 -14.32 30 -15 30 C-11.83684129 19.45613762 -7.13774232 8.51369265 0 0 Z " fill="#E02C22" transform="translate(347,326)"/>
<path d="M0 0 C0.33 0.99 0.66 1.98 1 3 C-2.09051979 7.83733533 -6.63818129 11.35152813 -11 15 C-11.87011719 15.74636719 -12.74023438 16.49273438 -13.63671875 17.26171875 C-14.96123047 18.36966797 -14.96123047 18.36966797 -16.3125 19.5 C-17.13363281 20.1909375 -17.95476563 20.881875 -18.80078125 21.59375 C-19.52652344 22.0578125 -20.25226562 22.521875 -21 23 C-21.99 22.67 -22.98 22.34 -24 22 C-23.28714844 21.41992188 -22.57429687 20.83984375 -21.83984375 20.2421875 C-18.88790816 17.83455228 -15.94325203 15.41823951 -13 13 C-12.31421875 12.443125 -11.6284375 11.88625 -10.921875 11.3125 C-6.80696039 7.90194014 -3.35668779 4.15589917 0 0 Z " fill="#DE2C23" transform="translate(604,752)"/>
<path d="M0 0 C0.99 1.0209375 0.99 1.0209375 2 2.0625 C2.99789618 3.04381064 3.9981304 4.02274636 5 5 C5.53496094 5.54269531 6.06992187 6.08539062 6.62109375 6.64453125 C12.60775705 12.34795456 19.57460291 15.56888253 27 19 C27 19.33 27 19.66 27 20 C16.64223894 19.33886632 9.10419967 13.17929691 2 6 C0 3 0 3 0 0 Z " fill="#DE2D25" transform="translate(557,706)"/>
<path d="M0 0 C4.8628852 0.41681873 6.86486307 2.36984145 10 6 C13.40590665 10.98722045 14.13377365 14.76301314 14.0625 20.75 C14.05347656 21.73484375 14.04445313 22.7196875 14.03515625 23.734375 C14.02355469 24.48203125 14.01195312 25.2296875 14 26 C13.34 26 12.68 26 12 26 C11.97421875 25.31035156 11.9484375 24.62070313 11.921875 23.91015625 C11.49122455 16.77506129 10.79130013 9.40077995 5.1796875 4.3671875 C3.49936734 3.17667726 1.75383527 2.07928324 0 1 C0 0.67 0 0.34 0 0 Z " fill="#DF2E25" transform="translate(658,176)"/>
<path d="M0 0 C0.46148437 0.38671875 0.92296875 0.7734375 1.3984375 1.171875 C8.27760139 6.66432996 15.66586423 9.36816765 24 12 C24 12.33 24 12.66 24 13 C15.63243589 14.17145898 9.02909276 10.07724278 2 6 C1.34 5.34 0.68 4.68 0 4 C0 2.68 0 1.36 0 0 Z " fill="#DC2E25" transform="translate(500,778)"/>
<path d="M0 0 C-1 2 -1 2 -3.40625 3 C-20.22689076 8.43697479 -20.22689076 8.43697479 -27 8 C-27 7.34 -27 6.68 -27 6 C-25.83082031 5.73445313 -24.66164062 5.46890625 -23.45703125 5.1953125 C-21.90880583 4.83875149 -20.36063141 4.48196898 -18.8125 4.125 C-18.04357422 3.95097656 -17.27464844 3.77695312 -16.48242188 3.59765625 C-0.76947819 -0.04397018 -0.76947819 -0.04397018 0 0 Z " fill="#E02F26" transform="translate(280,407)"/>
<path d="M0 0 C0.33 0 0.66 0 1 0 C1.06058594 1.28777344 1.12117187 2.57554687 1.18359375 3.90234375 C1.26798247 5.58074159 1.3526313 7.25912636 1.4375 8.9375 C1.47681641 9.78763672 1.51613281 10.63777344 1.55664062 11.51367188 C1.59853516 12.32255859 1.64042969 13.13144531 1.68359375 13.96484375 C1.72025146 14.7137085 1.75690918 15.46257324 1.79467773 16.23413086 C1.81771063 18.02461326 1.81771063 18.02461326 3 19 C3.08631874 20.34267413 3.10706473 21.68974322 3.09765625 23.03515625 C3.09443359 23.84404297 3.09121094 24.65292969 3.08789062 25.48632812 C3.07951172 26.33646484 3.07113281 27.18660156 3.0625 28.0625 C3.05798828 28.91650391 3.05347656 29.77050781 3.04882812 30.65039062 C3.03700373 32.76695663 3.01906769 34.88348685 3 37 C2.67 37 2.34 37 2 37 C0.29520934 28.50103234 -0.25785291 20.405878 -0.125 11.75 C-0.11597656 10.61175781 -0.10695313 9.47351563 -0.09765625 8.30078125 C-0.0744028 5.53362119 -0.04172868 2.7669324 0 0 Z " fill="#DF251B" transform="translate(604,353)"/>
<path d="M0 0 C1 3 1 3 0.13549805 5.25244141 C-0.31784912 6.11015137 -0.77119629 6.96786133 -1.23828125 7.8515625 C-1.72876953 8.78484375 -2.21925781 9.718125 -2.72460938 10.6796875 C-3.24861328 11.65164063 -3.77261719 12.62359375 -4.3125 13.625 C-4.82490234 14.6046875 -5.33730469 15.584375 -5.86523438 16.59375 C-9.72653672 23.86326836 -9.72653672 23.86326836 -12 25 C-11.539144 19.05687789 -8.91557948 14.73712168 -6 9.6875 C-5.5359375 8.86443359 -5.071875 8.04136719 -4.59375 7.19335938 C-1.18702381 1.18702381 -1.18702381 1.18702381 0 0 Z " fill="#E02D22" transform="translate(653,431)"/>
<path d="M0 0 C-2.15693309 5.06844821 -6.09515538 7.5528509 -10.375 10.8125 C-11.14328125 11.42287109 -11.9115625 12.03324219 -12.703125 12.66210938 C-13.44820312 13.23380859 -14.19328125 13.80550781 -14.9609375 14.39453125 C-15.63946777 14.91893799 -16.31799805 15.44334473 -17.01708984 15.98364258 C-19 17 -19 17 -21.25244141 16.6628418 C-21.82913574 16.444104 -22.40583008 16.22536621 -23 16 C-22.07058594 15.34773437 -21.14117188 14.69546875 -20.18359375 14.0234375 C-12.24762034 8.48297318 -12.24762034 8.48297318 -4.75 2.375 C-2 0 -2 0 0 0 Z " fill="#E02C22" transform="translate(610,535)"/>
<path d="M0 0 C0.33 0 0.66 0 1 0 C1.65040413 9.70186168 -0.19357263 17.82899626 -3 27 C-3.66 27 -4.32 27 -5 27 C-4.32969264 20.90373091 -3.23964287 14.99077746 -1.9375 9 C-1.75123047 8.12988281 -1.56496094 7.25976562 -1.37304688 6.36328125 C-0.9183875 4.24153748 -0.45962195 2.12067429 0 0 Z " fill="#DE2C21" transform="translate(691,393)"/>
<path d="M0 0 C-6.75 4 -6.75 4 -9 4 C-9.25523437 4.55171875 -9.51046875 5.1034375 -9.7734375 5.671875 C-11.19302074 8.36637058 -12.86132254 10.76778728 -14.625 13.25 C-15.25664063 14.14203125 -15.88828125 15.0340625 -16.5390625 15.953125 C-17.02117188 16.62859375 -17.50328125 17.3040625 -18 18 C-18.66 17.67 -19.32 17.34 -20 17 C-9.46199236 -2.83859771 -9.46199236 -2.83859771 0 0 Z " fill="#DF2A20" transform="translate(633,297)"/>
<path d="M0 0 C0.74958984 0.00451172 1.49917969 0.00902344 2.27148438 0.01367188 C4.11852383 0.02543646 5.96552213 0.04337135 7.8125 0.0625 C7.8125 0.3925 7.8125 0.7225 7.8125 1.0625 C7.14605469 1.08828125 6.47960937 1.1140625 5.79296875 1.140625 C-4.25646705 1.75905182 -12.66941314 4.76235707 -21.1875 10.0625 C-19.79552671 6.67993279 -18.3849504 5.22561318 -15.25 3.375 C-14.56035156 2.95863281 -13.87070312 2.54226562 -13.16015625 2.11328125 C-8.81062484 -0.20359786 -4.7911141 -0.05439693 0 0 Z " fill="#E0281D" transform="translate(646.1875,173.9375)"/>
<path d="M0 0 C0 0.66 0 1.32 0 2 C-0.8353125 2.02513672 -0.8353125 2.02513672 -1.6875 2.05078125 C-6.06166191 2.54582998 -8.3286286 3.27130297 -11.37890625 6.58203125 C-13.35504454 9.33589838 -15.22729453 12.11150444 -17 15 C-17.68359375 13.28515625 -17.68359375 13.28515625 -18 11 C-15.48054924 6.07212513 -11.94459393 1.94705509 -6.75 -0.125 C-3 -1 -3 -1 0 0 Z " fill="#E0362D" transform="translate(451,414)"/>
<path d="M0 0 C-4.1405464 2.21814986 -7.63262134 3.13119556 -12.328125 3.09765625 C-13.12734375 3.09443359 -13.9265625 3.09121094 -14.75 3.08789062 C-15.575 3.07951172 -16.4 3.07113281 -17.25 3.0625 C-18.09046875 3.05798828 -18.9309375 3.05347656 -19.796875 3.04882812 C-21.86461401 3.03707961 -23.93231624 3.01914522 -26 3 C-26.33 2.34 -26.66 1.68 -27 1 C-17.98978127 0.41464936 -9.0343984 -0.14340315 0 0 Z " fill="#E0261B" transform="translate(354,537)"/>
<path d="M0 0 C0.63769531 1.79077148 0.63769531 1.79077148 1 4 C0.15136719 5.69165039 0.15136719 5.69165039 -1.203125 7.34765625 C-1.68910156 7.95287109 -2.17507813 8.55808594 -2.67578125 9.18164062 C-3.19527344 9.80232422 -3.71476563 10.42300781 -4.25 11.0625 C-5.00603516 11.99932617 -5.00603516 11.99932617 -5.77734375 12.95507812 C-8.07137868 15.77595834 -10.39801973 18.45680804 -13 21 C-13.66 20.67 -14.32 20.34 -15 20 C-14.41992188 19.31035156 -13.83984375 18.62070312 -13.2421875 17.91015625 C-8.45180868 12.14747281 -3.99367458 6.34289492 0 0 Z " fill="#DE2C21" transform="translate(718,675)"/>
<path d="M0 0 C2.64 0.33 5.28 0.66 8 1 C8 1.66 8 2.32 8 3 C13.99320151 4.45933748 19.85845775 5.41509121 26 6 C26 6.33 26 6.66 26 7 C16.19754456 7.72194844 8.91524099 6.08554415 0 2 C0 1.34 0 0.68 0 0 Z " fill="#DE2A20" transform="translate(511,767)"/>
<path d="M0 0 C0.66 0 1.32 0 2 0 C2.37125 1.155 2.7425 2.31 3.125 3.5 C5.40454586 9.61135391 9.34394387 14.49637428 14 19 C13.01 19.33 12.02 19.66 11 20 C11 19.34 11 18.68 11 18 C10.41734375 17.77957031 9.8346875 17.55914063 9.234375 17.33203125 C6.29869077 15.58191181 5.07214352 13.56477364 3.25 10.6875 C2.63640625 9.74261719 2.0228125 8.79773438 1.390625 7.82421875 C-0.05173357 4.89493435 -0.30409244 3.2105144 0 0 Z " fill="#DE2B22" transform="translate(571,683)"/>
<path d="M0 0 C-0.6290625 0.43570312 -1.258125 0.87140625 -1.90625 1.3203125 C-7.35316798 5.11018616 -12.72343539 8.97625101 -18 13 C-17.19348254 7.60344932 -13.07048674 5.19934091 -9 2 C-5.39944613 -0.61858463 -4.19302265 -1.26847744 0 0 Z " fill="#E12E26" transform="translate(626,274)"/>
<path d="M0 0 C2.66804319 2.46280909 4.82053967 5.0679826 6.9375 8 C9.3075325 11.24447197 11.79773788 13.55121132 15 16 C15 16.66 15 17.32 15 18 C9.36709102 16.63444631 6.34080501 12.43790888 3 8 C0 2.77419355 0 2.77419355 0 0 Z " fill="#DF2921" transform="translate(301,516)"/>
<path d="M0 0 C5.62470954 5.09739302 11.58472519 11.75417556 14 19 C9.43435107 17.45322641 7.38313493 13.84763146 4.75 10.0625 C4.29109375 9.42892578 3.8321875 8.79535156 3.359375 8.14257812 C0 3.38846261 0 3.38846261 0 0 Z " fill="#DF2C23" transform="translate(610,464)"/>
<path d="M0 0 C-14.7 10 -14.7 10 -19 10 C-19 9.34 -19 8.68 -19 8 C-16.40251918 6.4666195 -13.79812104 4.94820332 -11.1875 3.4375 C-10.44951172 2.99986328 -9.71152344 2.56222656 -8.95117188 2.11132812 C-8.23896484 1.70205078 -7.52675781 1.29277344 -6.79296875 0.87109375 C-6.1383667 0.48880615 -5.48376465 0.10651855 -4.80932617 -0.28735352 C-3 -1 -3 -1 0 0 Z " fill="#DF2E25" transform="translate(673,695)"/>
<path d="M0 0 C0.66 0 1.32 0 2 0 C0.38989473 4.07376031 -2.53822271 6.76507069 -5.625 9.75 C-6.140625 10.25660156 -6.65625 10.76320313 -7.1875 11.28515625 C-8.45383339 12.52803902 -9.7263144 13.76465276 -11 15 C-11.99 14.67 -12.98 14.34 -14 14 C-12.54782324 12.49403892 -11.08807139 10.99537896 -9.625 9.5 C-8.81289063 8.6646875 -8.00078125 7.829375 -7.1640625 6.96875 C-5 5 -5 5 -3 5 C-2.690625 4.360625 -2.38125 3.72125 -2.0625 3.0625 C-1 1 -1 1 0 0 Z " fill="#DF2B22" transform="translate(625,519)"/>
<path d="M0 0 C0.66 0 1.32 0 2 0 C2.67286212 2.41509441 3.33846012 4.83180356 4 7.25 C4.19078125 7.93191406 4.3815625 8.61382812 4.578125 9.31640625 C5.49957044 12.70600912 6 15.45778976 6 19 C5.34 19 4.68 19 4 19 C3.32263519 16.96185767 2.65856466 14.91929445 2 12.875 C1.62875 11.73804688 1.2575 10.60109375 0.875 9.4296875 C0.03088051 6.12104059 -0.16509276 3.39471984 0 0 Z " fill="#DE2E24" transform="translate(607,391)"/>
<path d="M0 0 C-3.75235599 2.50157066 -5.86552038 3.20377054 -10.3125 3.625 C-11.72982422 3.76808594 -11.72982422 3.76808594 -13.17578125 3.9140625 C-15.96908357 3.99905925 -18.29425776 3.66041796 -21 3 C-21 2.34 -21 1.68 -21 1 C-18.81274749 0.83011631 -16.62518299 0.66424731 -14.4375 0.5 C-12.61025391 0.36078125 -12.61025391 0.36078125 -10.74609375 0.21875 C-7.15365784 0.00897272 -3.59752457 -0.03704015 0 0 Z " fill="#DE2419" transform="translate(549,789)"/>
<path d="M0 0 C0.33 0 0.66 0 1 0 C2.45228197 9.25829757 2.71881276 18.76138143 1 28 C0.67 28 0.34 28 0 28 C-0.78118882 18.52958787 -1.16656743 9.47611697 0 0 Z " fill="#E12014" transform="translate(708,606)"/>
<path d="M0 0 C-5.90040543 3.93360362 -13.99322364 5.00731669 -21 4 C-21.66 3.34 -22.32 2.68 -23 2 C-20.29215006 1.66227261 -17.58383004 1.32969313 -14.875 1 C-14.11445313 0.90460937 -13.35390625 0.80921875 -12.5703125 0.7109375 C-8.35090048 0.20169812 -4.25995656 -0.10888068 0 0 Z " fill="#DD3028" transform="translate(351,558)"/>
<path d="M0 0 C0.33 0.99 0.66 1.98 1 3 C-1.22050464 4.51439017 -3.44990229 6.01124868 -5.6875 7.5 C-6.62625977 8.14388672 -6.62625977 8.14388672 -7.58398438 8.80078125 C-11.16388718 11.16239252 -13.54851601 12.6128238 -18 12 C-14.40215091 9.19258746 -10.5943862 6.76212413 -6.75 4.3125 C-6.1003125 3.89677734 -5.450625 3.48105469 -4.78125 3.05273438 C-3.188386 2.03376991 -1.5943137 1.0166947 0 0 Z " fill="#E12A20" transform="translate(387,540)"/>
<path d="M0 0 C5.16102792 2.10471421 7.42552504 6.24160511 10 11 C10.875 14.5625 10.875 14.5625 11 17 C6.74619401 11.9281544 2.11064796 6.33194389 0 0 Z " fill="#DF2C23" transform="translate(602,645)"/>
<path d="M0 0 C0.33 0 0.66 0 1 0 C1.29924559 5.08717503 0.93094235 7.82904357 -2 12 C-2.68096422 13.32608822 -3.35330586 14.65686601 -4 16 C-4.33 16 -4.66 16 -5 16 C-3.94230769 3.94230769 -3.94230769 3.94230769 0 0 Z " fill="#E0342F" transform="translate(427,440)"/>
<path d="M0 0 C0.33 0 0.66 0 1 0 C0.43408715 6.11185874 -0.43183702 12.36979654 -3 18 C-3.99 18.33 -4.98 18.66 -6 19 C-4.3186083 12.51292846 -2.46937673 6.2322365 0 0 Z " fill="#E12D22" transform="translate(307,429)"/>
<path d="M0 0 C-1.56605388 3.6120275 -3.76757957 6.25523483 -6.375 9.1875 C-7.53128906 10.50814453 -7.53128906 10.50814453 -8.7109375 11.85546875 C-10.94274711 13.94636206 -12.02011966 14.65302763 -15 15 C-13.60014836 13.36114929 -12.19920688 11.72321773 -10.79296875 10.08984375 C-9.55864988 8.65114965 -8.33253049 7.20539344 -7.11328125 5.75390625 C-6.49839844 5.03074219 -5.88351562 4.30757813 -5.25 3.5625 C-4.39148438 2.54349609 -4.39148438 2.54349609 -3.515625 1.50390625 C-2 0 -2 0 0 0 Z " fill="#E12F27" transform="translate(347,375)"/>
<path d="M0 0 C0.33 0 0.66 0 1 0 C0.44676962 6.50045699 -1.27075659 13.27075659 -6 18 C-5.50356293 12.29097373 -4.20216829 4.20216829 0 0 Z " fill="#DF2B22" transform="translate(331,357)"/>
<path d="M0 0 C0.33 0 0.66 0 1 0 C1.33 6.27 1.66 12.54 2 19 C-1 17 -1 17 -1.6875 14.8125 C-2.05299646 11.52303184 -2.06484373 8.30703016 -2 5 C-1.34 5 -0.68 5 0 5 C0 3.35 0 1.7 0 0 Z " fill="#DF2F27" transform="translate(612,204)"/>
<path d="M0 0 C3.54331695 0.6052641 6.58260834 1.56944005 9.875 3 C13.99106416 4.70064926 17.57472206 5.61519322 22 6 C22 6.33 22 6.66 22 7 C14.07110018 7.66074165 8.01302061 5.75697533 1 2 C0.67 1.34 0.34 0.68 0 0 Z " fill="#DF2921" transform="translate(585,703)"/>
<path d="M0 0 C0.33 0.66 0.66 1.32 1 2 C-1.31 2 -3.62 2 -6 2 C-6 2.66 -6 3.32 -6 4 C-6.99 4 -7.98 4 -9 4 C-9.33 6.31 -9.66 8.62 -10 11 C-10.33 11 -10.66 11 -11 11 C-11.49065421 4.62149533 -11.49065421 4.62149533 -9.125 1.625 C-5.65092866 -1.03164279 -4.20915818 -1.18719846 0 0 Z " fill="#DA2D24" transform="translate(509,765)"/>
<path d="M0 0 C0.33 0 0.66 0 1 0 C1.22702385 3.22813558 1.42828723 6.45738689 1.625 9.6875 C1.68945312 10.59951172 1.75390625 11.51152344 1.8203125 12.45117188 C2.30707097 20.81733316 2.30707097 20.81733316 0 25 C-0.33 25 -0.66 25 -1 25 C-0.67 16.75 -0.34 8.5 0 0 Z " fill="#DF2921" transform="translate(636,665)"/>
<path d="M0 0 C0.66 0 1.32 0 2 0 C2.96189997 1.72718516 3.91936508 3.45684058 4.875 5.1875 C5.67550781 6.63189453 5.67550781 6.63189453 6.4921875 8.10546875 C7.8423678 10.69739518 8.97098329 13.26761098 10 16 C9.34 16 8.68 16 8 16 C6.52313012 13.92111288 5.18604262 11.86716626 3.875 9.6875 C3.50246094 9.09259766 3.12992188 8.49769531 2.74609375 7.88476562 C0 3.38338484 0 3.38338484 0 0 Z " fill="#E02B21" transform="translate(598,446)"/>
<path d="M0 0 C0.66 0 1.32 0 2 0 C0.64002446 6.04433574 -2.85651794 9.63494136 -7 14 C-7.66 13.67 -8.32 13.34 -9 13 C-7.54970675 10.82754427 -6.09044056 8.66219911 -4.625 6.5 C-4.2125 5.87996094 -3.8 5.25992188 -3.375 4.62109375 C-2.30100332 3.04474379 -1.15511468 1.51791243 0 0 Z " fill="#DD2E24" transform="translate(615,737)"/>
<path d="M0 0 C0.33 0 0.66 0 1 0 C1.22262303 6.7281627 0.95021536 12.53991163 -1 19 C-1.33 19 -1.66 19 -2 19 C-3.12862175 13.63904667 -3.09688221 8.44693314 -3 3 C-2.67 3 -2.34 3 -2 3 C-2 5.31 -2 7.62 -2 10 C-1.34 10 -0.68 10 0 10 C0 6.7 0 3.4 0 0 Z " fill="#DE403D" transform="translate(549,669)"/>
<path d="M0 0 C0 0.66 0 1.32 0 2 C-6.07027358 4.1583195 -11.59370576 4.20852314 -18 4 C-15.03095016 2.36427347 -12.32420253 1.51349012 -9 0.875 C-7.7315625 0.62363281 -7.7315625 0.62363281 -6.4375 0.3671875 C-4 0 -4 0 0 0 Z " fill="#E02B23" transform="translate(547,570)"/>
<path d="M0 0 C0.66 0.33 1.32 0.66 2 1 C-1.38772897 5.69159716 -4.78185183 10.0299782 -9 14 C-8.41827275 10.0479482 -6.44842259 7.77904947 -3.9375 4.75 C-3.20402344 3.85796875 -2.47054688 2.9659375 -1.71484375 2.046875 C-1.14894531 1.37140625 -0.58304687 0.6959375 0 0 Z " fill="#E02B20" transform="translate(399,499)"/>
<path d="M0 0 C-1 3 -1 3 -2.890625 4.16796875 C-10.72189969 7.55201294 -10.72189969 7.55201294 -15 7 C-11.19791273 3.69383716 -5.16418515 0 0 0 Z " fill="#DF2D23" transform="translate(672,719)"/>
<path d="M0 0 C0 0.99 0 1.98 0 3 C-2.046875 4.859375 -2.046875 4.859375 -4.75 6.75 C-5.63171875 7.38421875 -6.5134375 8.0184375 -7.421875 8.671875 C-10 10 -10 10 -14 9 C-9.38 6.03 -4.76 3.06 0 0 Z " fill="#DE2C21" transform="translate(687,709)"/>
<path d="M0 0 C0.68359375 1.640625 0.68359375 1.640625 1 4 C-0.21484375 6.796875 -0.21484375 6.796875 -1.9375 9.75 C-2.50339844 10.73484375 -3.06929687 11.7196875 -3.65234375 12.734375 C-4.09707031 13.48203125 -4.54179688 14.2296875 -5 15 C-5.66 14.67 -6.32 14.34 -7 14 C-5.23570801 9.02790438 -2.6060834 4.56561939 0 0 Z " fill="#E02C21" transform="translate(726,660)"/>
<path d="M0 0 C-1.65 0.33 -3.3 0.66 -5 1 C-5 1.66 -5 2.32 -5 3 C-9.29 3 -13.58 3 -18 3 C-14.73119651 1.36559825 -12.48745638 0.51956052 -9 -0.1875 C-8.154375 -0.36667969 -7.30875 -0.54585938 -6.4375 -0.73046875 C-3.96978589 -1.00334098 -2.34150494 -0.76424119 0 0 Z " fill="#DF2921" transform="translate(280,430)"/>
<path d="M0 0 C0 0.33 0 0.66 0 1 C-0.65226562 1.03738281 -1.30453125 1.07476562 -1.9765625 1.11328125 C-7.38920264 1.52042675 -11.17737944 2.34755869 -16 5 C-16.66 4.67 -17.32 4.34 -18 4 C-12.82295459 -1.99447363 -7.20997535 -1.03599646 0 0 Z " fill="#E02A1E" transform="translate(380,278)"/>
<path d="M0 0 C-4.41609747 4.41609747 -10.07217251 4.50924304 -16 5 C-15.67 4.01 -15.34 3.02 -15 2 C-13.43883181 1.66048381 -11.87598662 1.32867456 -10.3125 1 C-9.44238281 0.814375 -8.57226562 0.62875 -7.67578125 0.4375 C-5.06287036 0.01027953 -2.64186962 -0.07616201 0 0 Z " fill="#DF2B23" transform="translate(648,707)"/>
<path d="M0 0 C2.29225435 0.11371497 4.58382388 0.24130964 6.875 0.375 C8.15117187 0.44460938 9.42734375 0.51421875 10.7421875 0.5859375 C14 1 14 1 16 3 C14.083412 3.02712153 12.1667127 3.04645097 10.25 3.0625 C8.64898437 3.07990234 8.64898437 3.07990234 7.015625 3.09765625 C4.46631499 3.01510087 2.42066409 2.74617558 0 2 C0 1.34 0 0.68 0 0 Z " fill="#DE281E" transform="translate(480,572)"/>
<path d="M0 0 C0.66 0.33 1.32 0.66 2 1 C-0.97 5.29 -3.94 9.58 -7 14 C-7.33 12.68 -7.66 11.36 -8 10 C-6.6015625 7.67578125 -6.6015625 7.67578125 -4.625 5.3125 C-3.97789062 4.52488281 -3.33078125 3.73726563 -2.6640625 2.92578125 C-1.80168607 1.92777285 -0.93266121 0.93266121 0 0 Z " fill="#E02A20" transform="translate(603,290)"/>
<path d="M0 0 C0.99 0.33 1.98 0.66 3 1 C1.8782037 2.7936743 0.75245517 4.5848773 -0.375 6.375 C-1.00148438 7.37273437 -1.62796875 8.37046875 -2.2734375 9.3984375 C-4 12 -4 12 -6 14 C-5.62257767 7.83543524 -3.84129692 4.82624485 0 0 Z " fill="#E02C20" transform="translate(620,186)"/>
<path d="M0 0 C-1.56126332 3.83219177 -4.02866925 6.17361222 -7 9 C-7.8971875 9.8971875 -7.8971875 9.8971875 -8.8125 10.8125 C-9.204375 11.204375 -9.59625 11.59625 -10 12 C-10.33 11.34 -10.66 10.68 -11 10 C-4.31506849 0 -4.31506849 0 0 0 Z " fill="#DF2D24" transform="translate(584,644)"/>
<path d="M0 0 C0.33 0 0.66 0 1 0 C1.38095238 10.8994709 1.38095238 10.8994709 -1 15 C-1.99 15.495 -1.99 15.495 -3 16 C-2.30834212 10.58201328 -1.24200752 5.3177215 0 0 Z " fill="#E02A1E" transform="translate(386,297)"/>
<path d="M0 0 C2.34770643 3.52155964 2.37669614 5.50771843 2.625 9.6875 C2.69976563 10.86699219 2.77453125 12.04648437 2.8515625 13.26171875 C2.90054688 14.16535156 2.94953125 15.06898438 3 16 C-0.13107836 12.61416198 -0.33550778 10.28890538 -0.1875 5.75 C-0.14689453 4.13351562 -0.14689453 4.13351562 -0.10546875 2.484375 C-0.07066406 1.66453125 -0.03585937 0.8446875 0 0 Z " fill="#DF261C" transform="translate(579,388)"/>
<path d="M0 0 C0.66 0 1.32 0 2 0 C1.57476184 1.60746056 1.13429874 3.21089836 0.6875 4.8125 C0.44386719 5.70582031 0.20023437 6.59914063 -0.05078125 7.51953125 C-1.0200819 10.05247738 -1.95009604 11.2716496 -4 13 C-3.50269348 8.02693484 -2.44697666 4.36200187 0 0 Z " fill="#E12E23" transform="translate(301,363)"/>
<path d="M0 0 C0.33 0 0.66 0 1 0 C2.27170568 6.474138 1.68902652 9.97658059 -1 16 C-1.33 16 -1.66 16 -2 16 C-1.42978066 10.6496441 -0.79265639 5.32212148 0 0 Z " fill="#E03028" transform="translate(612,685)"/>
<path d="M0 0 C0.60328125 0.40992188 1.2065625 0.81984375 1.828125 1.2421875 C2.62734375 1.78101563 3.4265625 2.31984375 4.25 2.875 C5.03890625 3.40867188 5.8278125 3.94234375 6.640625 4.4921875 C8.71555692 5.81822015 10.77614972 6.94928175 13 8 C8.68725946 8.43127405 5.95799604 8.39417226 2.5625 5.6875 C0 3 0 3 0 0 Z " fill="#E1261C" transform="translate(615,225)"/>
<path d="M0 0 C-0.33 0.99 -0.66 1.98 -1 3 C-5.0916861 4.80795432 -8.55719328 5.21156222 -13 5 C-12 3 -12 3 -9.78515625 2.1484375 C-8.88667969 1.89320313 -7.98820313 1.63796875 -7.0625 1.375 C-6.16660156 1.11460937 -5.27070312 0.85421875 -4.34765625 0.5859375 C-2 0 -2 0 0 0 Z " fill="#DE2B22" transform="translate(563,784)"/>
<path d="M0 0 C3.09423168 3.09423168 3.93706005 6.5523812 4.125 10.875 C4.08375 11.57625 4.0425 12.2775 4 13 C3.34 13 2.68 13 2 13 C0.54815522 8.46298506 -0.23509196 4.81938524 0 0 Z " fill="#E02B20" transform="translate(702,583)"/>
<path d="M0 0 C3.81592825 2.54395217 4.52329522 4.71755613 6 9 C5.578125 11.2265625 5.578125 11.2265625 5 13 C4.15930585 11.39967863 3.32768495 9.79458829 2.5 8.1875 C1.80390625 6.84751953 1.80390625 6.84751953 1.09375 5.48046875 C0 3 0 3 0 0 Z " fill="#DD2B21" transform="translate(613,413)"/>
<path d="M0 0 C0.33 0 0.66 0 1 0 C1.08107583 1.93681161 1.13922475 3.8745934 1.1875 5.8125 C1.23970703 7.43091797 1.23970703 7.43091797 1.29296875 9.08203125 C1 12 1 12 -0.51171875 13.88671875 C-1.00285156 14.25410156 -1.49398437 14.62148438 -2 15 C-1.85816304 13.24967156 -1.71136571 11.49974466 -1.5625 9.75 C-1.48128906 8.77546875 -1.40007813 7.8009375 -1.31640625 6.796875 C-1.04925416 4.43538247 -0.64628032 2.28098935 0 0 Z " fill="#E12519" transform="translate(691,393)"/>
<path d="M0 0 C1.23593891 3.70781672 0.5678132 4.67510253 -0.9375 8.1875 C-1.31777344 9.08855469 -1.69804687 9.98960937 -2.08984375 10.91796875 C-2.54037109 11.94857422 -2.54037109 11.94857422 -3 13 C-3.33 13 -3.66 13 -4 13 C-3.55966813 7.80408388 -3.11696661 4.33664919 0 0 Z " fill="#E02E24" transform="translate(292,388)"/>
<path d="M0 0 C0.33 0.66 0.66 1.32 1 2 C0.00390625 4.1640625 0.00390625 4.1640625 -1.4375 6.625 C-1.91058594 7.44226563 -2.38367188 8.25953125 -2.87109375 9.1015625 C-3.24363281 9.72804688 -3.61617187 10.35453125 -4 11 C-4.66 11 -5.32 11 -6 11 C-3.76687117 3.98159509 -3.76687117 3.98159509 -2 1 C-1.34 0.67 -0.68 0.34 0 0 Z " fill="#E02F24" transform="translate(592,307)"/>
<path d="M0 0 C0.66 0.33 1.32 0.66 2 1 C1.16855469 1.70576172 1.16855469 1.70576172 0.3203125 2.42578125 C-0.76636719 3.35970703 -0.76636719 3.35970703 -1.875 4.3125 C-2.59429688 4.92738281 -3.31359375 5.54226563 -4.0546875 6.17578125 C-6.19179331 8.0412324 -6.19179331 8.0412324 -8 11 C-8.99 10.67 -9.98 10.34 -11 10 C-9.73232923 8.70522938 -8.46073776 7.41429661 -7.1875 6.125 C-6.47980469 5.40570312 -5.77210938 4.68640625 -5.04296875 3.9453125 C-3 2 -3 2 0 0 Z " fill="#DD3D42" transform="translate(574,629)"/>
<path d="M0 0 C4.71403788 0.47939368 8.66579301 0.96834048 13 3 C13 3.33 13 3.66 13 4 C11.58297487 3.85769192 10.1663904 3.71099254 8.75 3.5625 C7.56664062 3.44068359 7.56664062 3.44068359 6.359375 3.31640625 C4.17635361 3.02365007 2.1226818 2.57935581 0 2 C0 1.34 0 0.68 0 0 Z " fill="#E02A21" transform="translate(481,546)"/>
<path d="M0 0 C2.56529454 1.28264727 2.66499863 2.22772349 3.625 4.875 C3.88539063 5.57367188 4.14578125 6.27234375 4.4140625 6.9921875 C5 9 5 9 5 12 C4.34 12 3.68 12 3 12 C-0.42857143 4.71428571 -0.42857143 4.71428571 0 0 Z " fill="#DC2A21" transform="translate(587,422)"/>
<path d="M0 0 C4.23429756 1.31061591 8.07407404 2.94356259 12 5 C12 5.33 12 5.66 12 6 C4 5.07692308 4 5.07692308 1 3 C0.67 2.01 0.34 1.02 0 0 Z " fill="#E0291F" transform="translate(455,562)"/>
<path d="M0 0 C0.33 0 0.66 0 1 0 C0.88512252 1.58409994 0.75765492 3.16728963 0.625 4.75 C0.52058594 6.07257813 0.52058594 6.07257813 0.4140625 7.421875 C0.00149945 9.99066382 -0.71160957 11.75841015 -2 14 C-2.05437607 12.41705218 -2.09296271 10.83355744 -2.125 9.25 C-2.14820313 8.36828125 -2.17140625 7.4865625 -2.1953125 6.578125 C-1.99139502 3.8864142 -1.36551721 2.30095026 0 0 Z " fill="#DF271E" transform="translate(274,450)"/>
<path d="M0 0 C0.33 0 0.66 0 1 0 C1.08159574 4.16138263 0.98248524 7.9472484 0 12 C-0.66 12 -1.32 12 -2 12 C-1.85962479 10.18706911 -1.71255111 8.3746557 -1.5625 6.5625 C-1.48128906 5.55316406 -1.40007812 4.54382813 -1.31640625 3.50390625 C-1 1 -1 1 0 0 Z " fill="#E02C22" transform="translate(300,451)"/>
<path d="M0 0 C2.82345231 2.82345231 2.67277783 5.07333391 3 9 C2.5625 12.4375 2.5625 12.4375 2 15 C1.67 15 1.34 15 1 15 C-0.03590199 9.94997778 -0.10251672 5.12583611 0 0 Z " fill="#DF3129" transform="translate(661,340)"/>
<path d="M0 0 C0.93045933 2.55144824 1.08564091 3.74006478 0.22265625 6.359375 C-0.16019531 7.14828125 -0.54304687 7.9371875 -0.9375 8.75 C-1.50791016 9.94882812 -1.50791016 9.94882812 -2.08984375 11.171875 C-2.39019531 11.77515625 -2.69054687 12.3784375 -3 13 C-3.93045933 10.44855176 -4.08564091 9.25993522 -3.22265625 6.640625 C-2.83980469 5.85171875 -2.45695313 5.0628125 -2.0625 4.25 C-1.68222656 3.45078125 -1.30195312 2.6515625 -0.91015625 1.828125 C-0.60980469 1.22484375 -0.30945313 0.6215625 0 0 Z " fill="#DF281E" transform="translate(612,317)"/>
<path d="M0 0 C1.46015291 0.28241641 2.91809793 0.57626614 4.375 0.875 C5.18710937 1.03742187 5.99921875 1.19984375 6.8359375 1.3671875 C9 2 9 2 11 4 C4.375 4.125 4.375 4.125 1 3 C0.67 2.01 0.34 1.02 0 0 Z " fill="#E02D23" transform="translate(468,568)"/>
<path d="M0 0 C4.06540996 1.35513665 4.97300269 3.30796918 7 7 C6.609375 9.19921875 6.609375 9.19921875 6 11 C4.9944239 9.54550599 3.99569565 8.08627557 3 6.625 C2.443125 5.81289063 1.88625 5.00078125 1.3125 4.1640625 C0 2 0 2 0 0 Z " fill="#DC241B" transform="translate(705,533)"/>
<path d="M0 0 C0.33 0 0.66 0 1 0 C0.54177532 3.46941546 0.10868317 6.67395049 -1 10 C-1.99 10.33 -2.98 10.66 -4 11 C-3.5247412 9.35303396 -3.04468109 7.70745272 -2.5625 6.0625 C-2.29566406 5.14597656 -2.02882813 4.22945313 -1.75390625 3.28515625 C-1 1 -1 1 0 0 Z " fill="#E02A1F" transform="translate(680,435)"/>
<path d="M0 0 C0.66 0.33 1.32 0.66 2 1 C0.02 3.97 -1.96 6.94 -4 10 C-5 6 -5 6 -4.00390625 4.296875 C-2.66927083 2.86458333 -1.33463542 1.43229167 0 0 Z " fill="#DF2D21" transform="translate(438,419)"/>
<path d="M0 0 C6.625 0.75 6.625 0.75 10 3 C10 3.66 10 4.32 10 5 C8.51800098 4.55090939 7.03944764 4.09043436 5.5625 3.625 C4.73878906 3.36976563 3.91507813 3.11453125 3.06640625 2.8515625 C1 2 1 2 0 0 Z " fill="#E1291F" transform="translate(607,622)"/>
<path d="M0 0 C2.80045623 3.14591933 3.35261589 5.067064 3.1875 9.25 C3.16042969 10.14203125 3.13335938 11.0340625 3.10546875 11.953125 C3.07066406 12.62859375 3.03585937 13.3040625 3 14 C1.20724134 10.88089144 0.65709282 8.32317572 0.375 4.75 C0.30023437 3.85796875 0.22546875 2.9659375 0.1484375 2.046875 C0.09945312 1.37140625 0.05046875 0.6959375 0 0 Z " fill="#E12318" transform="translate(731,587)"/>
<path d="M0 0 C0.66 0 1.32 0 2 0 C2.69710731 1.28650706 3.38242876 2.57940665 4.0625 3.875 C4.63677734 4.95394531 4.63677734 4.95394531 5.22265625 6.0546875 C5.47917969 6.69664062 5.73570312 7.33859375 6 8 C5.67 8.66 5.34 9.32 5 10 C2.66063182 7.87330165 1.19346152 5.93775144 0 3 C0 2.01 0 1.02 0 0 Z " fill="#DE2B22" transform="translate(592,435)"/>
<path d="M0 0 C0.66 0 1.32 0 2 0 C5 5.625 5 5.625 5 9 C4.34 9 3.68 9 3 9 C0 3.375 0 3.375 0 0 Z " fill="#DE2D23" transform="translate(550,695)"/>
<path d="M0 0 C0.33 0.66 0.66 1.32 1 2 C0.00390625 3.9453125 0.00390625 3.9453125 -1.4375 6.125 C-1.91058594 6.84945313 -2.38367188 7.57390625 -2.87109375 8.3203125 C-3.24363281 8.87460937 -3.61617188 9.42890625 -4 10 C-4.96956854 6.94813661 -5.1635271 6.33484121 -3.6875 3.3125 C-2 1 -2 1 0 0 Z " fill="#E02A1F" transform="translate(318,333)"/>
<path d="M0 0 C1.4800841 0.11362262 2.95910074 0.24122908 4.4375 0.375 C5.26121094 0.44460938 6.08492187 0.51421875 6.93359375 0.5859375 C7.95646484 0.79089844 7.95646484 0.79089844 9 1 C9.33 1.66 9.66 2.32 10 3 C8.72125 3.061875 7.4425 3.12375 6.125 3.1875 C5.40570312 3.22230469 4.68640625 3.25710938 3.9453125 3.29296875 C3.30335938 3.19628906 2.66140625 3.09960938 2 3 C1.34 2.01 0.68 1.02 0 0 Z " fill="#DC251B" transform="translate(514,788)"/>
<path d="M0 0 C0.33 0 0.66 0 1 0 C1.36630156 3.93774177 1.30233203 5.56539771 -1 8.875 C-1.66 9.57625 -2.32 10.2775 -3 11 C-2.44894091 7.0507432 -1.61064629 3.65079826 0 0 Z " fill="#DF2A20" transform="translate(632,699)"/>
<path d="M0 0 C0 3 0 3 -2.5 5.6875 C-3.325 6.450625 -4.15 7.21375 -5 8 C-5.99 7.67 -6.98 7.34 -8 7 C-5.36 4.69 -2.72 2.38 0 0 Z " fill="#DF2A1E" transform="translate(700,698)"/>
<path d="M0 0 C0.33 0 0.66 0 1 0 C0.67 2.97 0.34 5.94 0 9 C-0.99 9.33 -1.98 9.66 -3 10 C-2.01 6.7 -1.02 3.4 0 0 Z " fill="#DD291D" transform="translate(730,648)"/>
<path d="M0 0 C0 0.99 0 1.98 0 3 C-2.8125 4.5625 -2.8125 4.5625 -6 6 C-6.99 5.67 -7.98 5.34 -9 5 C-7.87926138 4.16094435 -6.75325453 3.32892169 -5.625 2.5 C-4.99851562 2.0359375 -4.37203125 1.571875 -3.7265625 1.09375 C-2 0 -2 0 0 0 Z " fill="#E12A1F" transform="translate(586,552)"/>
<path d="M0 0 C4.29 0 8.58 0 13 0 C13.33 0.99 13.66 1.98 14 3 C9.38 2.34 4.76 1.68 0 1 C0 0.67 0 0.34 0 0 Z " fill="#E2403C" transform="translate(588,643)"/>
<path d="M0 0 C2.91227269 3.28804981 4.49701212 5.59885603 5 10 C2 9 2 9 0.8125 6.6875 C0 4 0 4 0 0 Z " fill="#DD281F" transform="translate(697,572)"/>
<path d="M0 0 C1 2 1 2 0.44140625 3.9453125 C0.15136719 4.66460937 -0.13867188 5.38390625 -0.4375 6.125 C-0.72496094 6.84945313 -1.01242187 7.57390625 -1.30859375 8.3203125 C-1.53675781 8.87460937 -1.76492188 9.42890625 -2 10 C-2.33 10 -2.66 10 -3 10 C-2.25 2.25 -2.25 2.25 0 0 Z " fill="#DF291E" transform="translate(425,446)"/>
<path d="M0 0 C1.5 1 1.5 1 3 3 C3.27345479 5.71846235 3.13491285 8.25677199 3 11 C0.87953208 7.46588679 0.46800711 4.05606165 0 0 Z " fill="#DC281B" transform="translate(687,334)"/>
<path d="M0 0 C1.46726798 3.81489674 0.43336419 6.29011622 -1 10 C-1.33 10 -1.66 10 -2 10 C-2.1953125 3.9453125 -2.1953125 3.9453125 -2 2 C-1.34 1.34 -0.68 0.68 0 0 Z " fill="#E0291E" transform="translate(583,328)"/>
<path d="M0 0 C-1 3 -1 3 -3 4 C-5.3329866 4.04022391 -7.66706666 4.04320247 -10 4 C-6.86268382 1.90845588 -3.85464592 0 0 0 Z " fill="#DE2820" transform="translate(650,228)"/>
<path d="M0 0 C3.16115776 1.36983503 3.9927092 1.9890638 6 5 C5.67 5.99 5.34 6.98 5 8 C0 2.25 0 2.25 0 0 Z " fill="#DE261B" transform="translate(694,518)"/>
<path d="M0 0 C0.66 1.32 1.32 2.64 2 4 C0.02 6.97 0.02 6.97 -2 10 C-2.93423645 6.98968256 -3.04449911 6.13349732 -2 3 C-1.34 3 -0.68 3 0 3 C0 2.01 0 1.02 0 0 Z " fill="#E02A20" transform="translate(657,420)"/>
<path d="M0 0 C0.33 0 0.66 0 1 0 C1.25 2.75 1.25 2.75 1 6 C-1 8.375 -1 8.375 -3 10 C-2.01 6.7 -1.02 3.4 0 0 Z " fill="#E0281E" transform="translate(382,314)"/>
<path d="M0 0 C-1 3 -1 3 -4 5 C-6.1875 4.625 -6.1875 4.625 -8 4 C-2.25 0 -2.25 0 0 0 Z " fill="#DF2A20" transform="translate(578,776)"/>
<path d="M0 0 C0.66 0 1.32 0 2 0 C0.79618552 2.49361571 -0.45428722 4.68143083 -2 7 C-2.99 6.67 -3.98 6.34 -5 6 C-3.38405168 3.95880212 -1.7143618 1.95927063 0 0 Z " fill="#E0291E" transform="translate(632,511)"/>
<path d="M0 0 C1.46726798 3.81489674 0.43336419 6.29011622 -1 10 C-1.33 10 -1.66 10 -2 10 C-2 7.36 -2 4.72 -2 2 C-1.34 2 -0.68 2 0 2 C0 1.34 0 0.68 0 0 Z " fill="#DF2A1F" transform="translate(277,439)"/>
<path d="M0 0 C0.66 0 1.32 0 2 0 C1.50168276 3.68754757 0.89932357 5.60490662 -2 8 C-1.125 2.25 -1.125 2.25 0 0 Z " fill="#DF2F25" transform="translate(430,431)"/>
<path d="M0 0 C-1.15173355 2.46800047 -2.04783565 4.04783565 -4 6 C-4.99 5.67 -5.98 5.34 -7 5 C-2.25 0 -2.25 0 0 0 Z " fill="#E22920" transform="translate(331,391)"/>
<path d="M0 0 C1 4 1 4 1 4 Z " fill="#DF4A46" transform="translate(607,362)"/>
<path d="" fill="#DB4C4B" transform="translate(0,0)"/>
<path d="" fill="#D7514F" transform="translate(0,0)"/>
<path d="M0 0 C2 1 2 1 2 1 Z " fill="#DD4D49" transform="translate(560,536)"/>
<path d="" fill="#DF4B48" transform="translate(0,0)"/>
<path d="M0 0 C2 1 2 1 2 1 Z " fill="#E24744" transform="translate(634,300)"/>
<path d="M0 0 C2 1 2 1 2 1 Z " fill="#E04E4C" transform="translate(638,235)"/>
<path d="" fill="#767575" transform="translate(0,0)"/>
<path d="" fill="#DE4945" transform="translate(0,0)"/>
<path d="" fill="#D55552" transform="translate(0,0)"/>
<path d="" fill="#E14744" transform="translate(0,0)"/>
<path d="" fill="#DA4947" transform="translate(0,0)"/>
<path d="" fill="#E14C49" transform="translate(0,0)"/>
<path d="" fill="#DD4D4C" transform="translate(0,0)"/>
<path d="" fill="#E04A48" transform="translate(0,0)"/>
<path d="" fill="#E14947" transform="translate(0,0)"/>
<path d="" fill="#E14942" transform="translate(0,0)"/>
<path d="" fill="#E04B48" transform="translate(0,0)"/>
<path d="" fill="#E14944" transform="translate(0,0)"/>
<path d="" fill="#E14D4C" transform="translate(0,0)"/>
<path d="" fill="#D64846" transform="translate(0,0)"/>
<path d="" fill="#E44848" transform="translate(0,0)"/>
<path d="" fill="#E34846" transform="translate(0,0)"/>
<path d="" fill="#D64F4F" transform="translate(0,0)"/>
<path d="" fill="#DF504F" transform="translate(0,0)"/>
<path d="" fill="#E04F4C" transform="translate(0,0)"/>
<path d="" fill="#E44B4B" transform="translate(0,0)"/>
<path d="" fill="#E44B49" transform="translate(0,0)"/>
<path d="" fill="#E34D4A" transform="translate(0,0)"/>
<path d="" fill="#E14D4C" transform="translate(0,0)"/>
<path d="" fill="#DE4D4A" transform="translate(0,0)"/>
<path d="" fill="#DF4E4C" transform="translate(0,0)"/>
<path d="" fill="#DE4D4B" transform="translate(0,0)"/>
<path d="" fill="#D94A47" transform="translate(0,0)"/>
<path d="" fill="#E04948" transform="translate(0,0)"/>
<path d="" fill="#DC4C48" transform="translate(0,0)"/>
<path d="" fill="#DE4C4B" transform="translate(0,0)"/>
<path d="" fill="#DA514F" transform="translate(0,0)"/>
<path d="" fill="#DF4E4A" transform="translate(0,0)"/>
<path d="" fill="#DD4B4B" transform="translate(0,0)"/>
<path d="" fill="#E14849" transform="translate(0,0)"/>
<path d="" fill="#DF4846" transform="translate(0,0)"/>
<path d="" fill="#E04A46" transform="translate(0,0)"/>
<path d="" fill="#DF4644" transform="translate(0,0)"/>
<path d="" fill="#E04746" transform="translate(0,0)"/>
<path d="" fill="#DF4F4C" transform="translate(0,0)"/>
<path d="" fill="#E04C4B" transform="translate(0,0)"/>
<path d="" fill="#DE4D4B" transform="translate(0,0)"/>
<path d="" fill="#DD4B49" transform="translate(0,0)"/>
<path d="" fill="#DF4B49" transform="translate(0,0)"/>
<path d="" fill="#E34C4C" transform="translate(0,0)"/>
<path d="" fill="#E24C4B" transform="translate(0,0)"/>
<path d="" fill="#DE4A48" transform="translate(0,0)"/>
<path d="" fill="#E14644" transform="translate(0,0)"/>
<path d="" fill="#DE504D" transform="translate(0,0)"/>
<path d="" fill="#DA4A49" transform="translate(0,0)"/>
<path d="" fill="#DF4848" transform="translate(0,0)"/>
<path d="" fill="#DD4A47" transform="translate(0,0)"/>
<path d="" fill="#DA504C" transform="translate(0,0)"/>
<path d="" fill="#DF4B44" transform="translate(0,0)"/>
<path d="" fill="#E04746" transform="translate(0,0)"/>
<path d="" fill="#DB4D4A" transform="translate(0,0)"/>
<path d="" fill="#DD4B4C" transform="translate(0,0)"/>
<path d="" fill="#DC4F4D" transform="translate(0,0)"/>
<path d="" fill="#DF4D4C" transform="translate(0,0)"/>
<path d="" fill="#D74E4C" transform="translate(0,0)"/>
<path d="" fill="#DB514C" transform="translate(0,0)"/>
<path d="" fill="#DF4945" transform="translate(0,0)"/>
<path d="" fill="#DF4D4B" transform="translate(0,0)"/>
<path d="" fill="#E44A46" transform="translate(0,0)"/>
<path d="" fill="#E04A49" transform="translate(0,0)"/>
<path d="" fill="#E14743" transform="translate(0,0)"/>
<path d="" fill="#DF4C49" transform="translate(0,0)"/>
<path d="" fill="#DB5954" transform="translate(0,0)"/>
<path d="" fill="#E14B49" transform="translate(0,0)"/>
<path d="" fill="#D85350" transform="translate(0,0)"/>
</svg>
